<svg width="18" height="17" viewBox="0 0 18 17" fill="none" xmlns="http://www.w3.org/2000/svg">
<path fill-rule="evenodd" clip-rule="evenodd" d="M13.4739 16.0199C13.3833 16.0199 13.2944 15.9981 13.2107 15.9561L8.54384 13.5455L3.87699 15.9561C3.68731 16.0552 3.45491 16.0384 3.28061 15.9141C3.10631 15.7882 3.01915 15.5784 3.05504 15.3686L3.94535 10.2653L0.170514 6.64936C0.0167179 6.50163 -0.0396739 6.28005 0.0286798 6.0786C0.0953247 5.87716 0.271335 5.72943 0.484941 5.69921L5.70375 4.95554L8.03632 0.310561C8.13201 0.120867 8.32853 0 8.54384 0C8.76087 0 8.95738 0.120867 9.05308 0.310561L11.3856 4.95554L16.6027 5.69921C16.8164 5.72943 16.9941 5.87716 17.0607 6.0786C17.1274 6.28005 17.071 6.50163 16.9172 6.64936L13.1423 10.2653L14.0326 15.3686C14.0702 15.5784 13.9814 15.7882 13.8071 15.9141C13.7097 15.9847 13.5918 16.0199 13.4739 16.0199Z" fill="#E0DBD1"/>
</svg>
